<?xml version="1.0" ?><!DOCTYPE svg  PUBLIC '-//W3C//DTD SVG 1.1//EN'  'http://www.w3.org/Graphics/SVG/1.1/DTD/svg11.dtd'><svg enable-background="new 0 0 91 91" height="91px" id="Layer_1" version="1.1" viewBox="0 0 91 91" width="91px" xml:space="preserve" xmlns="http://www.w3.org/2000/svg" xmlns:xlink="http://www.w3.org/1999/xlink"><g><path d="M22.334,54.598c1.257,0.391,2.887,0.181,4.17,0.192c3.353,0.024,6.707,0,10.062,0.008   c10.301,0.021,20.587,0.284,30.88,0.51c1.922,0.044,3.293-2.249,2.239-3.898c-3.628-5.679-6.816-11.623-10.413-17.32   c-1.718-2.723-3.477-5.432-5.34-8.059c-1.428-2.015-3.145-3.754-4.773-5.565c2.286-3.427-2.622-7.101-5.177-3.482   c-7.908,11.203-15.001,22.983-23.102,34.042C19.911,52.347,20.971,54.174,22.334,54.598z M47.773,22.234   c1.014,1.883,1.913,3.868,2.927,5.686c1.569,2.813,3.095,5.644,4.588,8.5c2.385,4.566,4.89,9.086,7.499,13.536   c-8.381-0.25-16.779-0.21-25.158-0.176c-3.281,0.014-6.561,0.036-9.844,0.062c-0.052,0-0.104,0.002-0.158,0.002   C34.153,40.512,40.674,31.132,47.773,22.234z"/><path d="M21.079,64.018c2.121,1.172,5.724,0.444,7.999,0.354c5.14-0.2,10.279-0.452,15.417-0.696   c5.267-0.252,24.074-1.507,23.188-1.517c1.052,0.012,1.991-1.326,1.298-2.264c-1.28-1.731-4.778-1.417-6.646-1.467   c-5-0.137-9.998-0.21-14.997-0.23c-5.364-0.023-10.726-0.042-16.09-0.092c-1.841-0.018-7.619-0.146-7.705-0.147   C20.203,57.131,17.642,62.121,21.079,64.018z"/><path d="M15.707,78.728C30.638,91.38,54.37,91.032,70.892,81.46c15.423-8.932,22.319-27.752,18.527-44.848   C84.793,15.757,64.548,1.889,43.763,1.521c-1.299-0.024-2.247,0.52-2.845,1.317C23.973,2.475,8.244,16.96,2.739,32.102   C-3.191,48.411,2.569,67.593,15.707,78.728z M6.077,38.773c1.675-8.614,6.435-16.187,12.763-22.17   c6.167-5.835,13.464-9.004,21.32-11.655c-0.138,1.985,1.06,4.086,3.603,4.061c15.77-0.166,31.685,8.696,38.115,23.448   c5.934,13.614,2.088,31.312-9.432,40.826C59.72,83.791,37.083,86.066,23.008,77.187C10.529,69.31,3.249,53.339,6.077,38.773z"/></g></svg>