<?xml version="1.0" ?><svg viewBox="0 0 519.95 584.95" xmlns="http://www.w3.org/2000/svg"><defs><style>.cls-1{fill:#60a434;}.cls-2{fill:#5b9934;}.cls-3{fill:#62b532;}.cls-4{fill:#61a633;}.cls-5{fill:#ff5c5c;}.cls-6{fill:#ff4545;}</style></defs><title/><g data-name="图层 2" id="图层_2"><g data-name="图层 1" id="图层_1-2"><path class="cls-1" d="M232.75,7.42a50,50,0,0,1-36.29,6.4A50,50,0,0,0,147.2,31.75a50,50,0,0,1-31.91,18.42,50,50,0,0,0-40.16,33.7A50,50,0,0,1,51.44,112.1a50,50,0,0,0-26.22,45.41,50,50,0,0,1-12.6,34.62,50,50,0,0,0-9.1,51.63,50,50,0,0,1,0,36.85,50,50,0,0,0,9.1,51.63,50,50,0,0,1,12.6,34.62,50,50,0,0,0,26.22,45.41A50,50,0,0,1,75.12,440.5a50,50,0,0,0,40.16,33.7,50,50,0,0,1,31.91,18.42,50,50,0,0,0,49.27,17.93,50,50,0,0,1,36.29,6.4A50,50,0,0,0,259,524.38V390.28a24.41,24.41,0,0,1-12.81-3.63h0a24.42,24.42,0,0,0-17.73-3.13,24.43,24.43,0,0,1-24.07-8.76,24.43,24.43,0,0,0-15.59-9h0a24.43,24.43,0,0,1-19.62-16.46,24.43,24.43,0,0,0-11.57-13.79,24.43,24.43,0,0,1-12.81-22.18,24.43,24.43,0,0,0-6.16-16.91,24.43,24.43,0,0,1-4.45-25.22,24.43,24.43,0,0,0,0-18A24.43,24.43,0,0,1,138.62,228a24.43,24.43,0,0,0,6.16-16.91,24.43,24.43,0,0,1,12.81-22.18,24.43,24.43,0,0,0,11.57-13.79,24.43,24.43,0,0,1,19.62-16.46h0a24.43,24.43,0,0,0,15.59-9,24.43,24.43,0,0,1,24.07-8.76,24.43,24.43,0,0,0,17.73-3.13h0A24.41,24.41,0,0,1,259,134.1V0A50,50,0,0,0,232.75,7.42Z"/><path class="cls-2" d="M285.18,7.42a50,50,0,0,0,36.29,6.4,50,50,0,0,1,49.27,17.93,50,50,0,0,0,31.91,18.42,50,50,0,0,1,40.16,33.7,50,50,0,0,0,23.68,28.23,50,50,0,0,1,26.22,45.41,50,50,0,0,0,12.6,34.62,50,50,0,0,1,9.1,51.63,50,50,0,0,0,0,36.85,50,50,0,0,1-9.1,51.63,50,50,0,0,0-12.6,34.62,50,50,0,0,1-26.22,45.41,50,50,0,0,0-23.68,28.23,50,50,0,0,1-40.16,33.7,50,50,0,0,0-31.91,18.42,50,50,0,0,1-49.27,17.93,50,50,0,0,0-36.29,6.4A50,50,0,0,1,259,524.38V390.28a24.41,24.41,0,0,0,12.81-3.63h0a24.42,24.42,0,0,1,17.73-3.13,24.43,24.43,0,0,0,24.07-8.76,24.43,24.43,0,0,1,15.59-9h0a24.43,24.43,0,0,0,19.62-16.46,24.43,24.43,0,0,1,11.57-13.79,24.43,24.43,0,0,0,12.81-22.18,24.43,24.43,0,0,1,6.16-16.91,24.43,24.43,0,0,0,4.45-25.22,24.43,24.43,0,0,1,0-18A24.43,24.43,0,0,0,379.31,228a24.43,24.43,0,0,1-6.16-16.91,24.43,24.43,0,0,0-12.81-22.18,24.43,24.43,0,0,1-11.57-13.79,24.43,24.43,0,0,0-19.62-16.46h0a24.43,24.43,0,0,1-15.59-9,24.43,24.43,0,0,0-24.07-8.76,24.43,24.43,0,0,1-17.73-3.13h0A24.41,24.41,0,0,0,259,134.1V0A50,50,0,0,1,285.18,7.42Z"/><path class="cls-3" d="M241.51,451.48h0a37.15,37.15,0,0,0-27-4.75h0a37.15,37.15,0,0,1-36.61-13.32h0a37.15,37.15,0,0,0-23.71-13.69h0a37.15,37.15,0,0,1-29.84-25h0a37.15,37.15,0,0,0-17.6-21h0A37.15,37.15,0,0,1,87.31,340a37.15,37.15,0,0,0-9.36-25.73h0a37.15,37.15,0,0,1-6.76-38.36h0a37.15,37.15,0,0,0,0-27.38,37.15,37.15,0,0,1,6.76-38.36h0a37.15,37.15,0,0,0,9.36-25.73,37.15,37.15,0,0,1,19.48-33.74h0a37.15,37.15,0,0,0,17.6-21h0a37.15,37.15,0,0,1,29.84-25h0A37.15,37.15,0,0,0,177.94,91h0a37.15,37.15,0,0,1,36.61-13.32h0a37.15,37.15,0,0,0,27-4.75h0A37.12,37.12,0,0,1,261,67.38V0a50,50,0,0,0-26.22,7.42,50,50,0,0,1-36.29,6.4,50,50,0,0,0-49.27,17.93,50,50,0,0,1-31.91,18.42,50,50,0,0,0-40.16,33.7A50,50,0,0,1,53.46,112.1a50,50,0,0,0-26.22,45.41,50,50,0,0,1-12.6,34.62,50,50,0,0,0-9.1,51.63,50,50,0,0,1,0,36.85,50,50,0,0,0,9.1,51.63,50,50,0,0,1,12.6,34.62,50,50,0,0,0,26.22,45.41A50,50,0,0,1,77.14,440.5a50,50,0,0,0,40.16,33.7,50,50,0,0,1,31.91,18.42,50,50,0,0,0,49.27,17.93,50,50,0,0,1,36.29,6.4A50,50,0,0,0,261,524.38V457A37.12,37.12,0,0,1,241.51,451.48Z"/><path class="cls-4" d="M516.43,243.77a50,50,0,0,0-9.1-51.63,50,50,0,0,1-12.6-34.62,50,50,0,0,0-26.21-45.41h0a50,50,0,0,1-23.68-28.23,50,50,0,0,0-40.16-33.7,50,50,0,0,1-31.91-18.42,50,50,0,0,0-49.27-17.93h0a50,50,0,0,1-36.29-6.4A50,50,0,0,0,261,0V67.38a37.12,37.12,0,0,1,19.48,5.52h0a37.15,37.15,0,0,0,27,4.75h0A37.15,37.15,0,0,1,344,91h0a37.15,37.15,0,0,0,23.71,13.69h0a37.15,37.15,0,0,1,29.84,25h0a37.15,37.15,0,0,0,17.6,21h0a37.15,37.15,0,0,1,19.48,33.74A37.15,37.15,0,0,0,444,210.14h0a37.15,37.15,0,0,1,6.76,38.36h0a37.15,37.15,0,0,0,0,27.38h0A37.15,37.15,0,0,1,444,314.24h0A37.15,37.15,0,0,0,434.66,340a37.15,37.15,0,0,1-19.48,33.74,37.15,37.15,0,0,0-17.6,21h0a37.15,37.15,0,0,1-29.84,25h0A37.15,37.15,0,0,0,344,433.41h0a37.15,37.15,0,0,1-36.61,13.32h0a37.15,37.15,0,0,0-27,4.75h0A37.12,37.12,0,0,1,261,457v67.38A50,50,0,0,0,287.2,517a50,50,0,0,1,36.29-6.4h0a50,50,0,0,0,49.27-17.93,50,50,0,0,1,31.91-18.42,50,50,0,0,0,40.16-33.7,50,50,0,0,1,23.68-28.23h0a50,50,0,0,0,26.21-45.41,50,50,0,0,1,12.6-34.62,50,50,0,0,0,9.1-51.63A50,50,0,0,1,516.43,243.77Z"/><path class="cls-1" d="M241.51,72.89h0a37.15,37.15,0,0,1-27,4.75h0A37.15,37.15,0,0,0,177.94,91h0a37.15,37.15,0,0,1-23.71,13.69h0a37.15,37.15,0,0,0-29.84,25h0a37.15,37.15,0,0,1-17.6,21h0a37.15,37.15,0,0,0-19.48,33.74,37.15,37.15,0,0,1-9.36,25.73h0a37.15,37.15,0,0,0-6.76,38.36,37.15,37.15,0,0,1,0,27.38h0a37.15,37.15,0,0,0,6.76,38.36h0A37.15,37.15,0,0,1,87.31,340a37.15,37.15,0,0,0,19.48,33.74h0a37.15,37.15,0,0,1,17.6,21h0a37.15,37.15,0,0,0,29.84,25h0a37.15,37.15,0,0,1,23.71,13.69h0a37.15,37.15,0,0,0,36.61,13.32h0a37.15,37.15,0,0,1,27,4.75h0A37.12,37.12,0,0,0,261,457V390.28a24.41,24.41,0,0,1-12.81-3.63h0a24.43,24.43,0,0,0-17.73-3.13,24.43,24.43,0,0,1-24.07-8.76,24.43,24.43,0,0,0-15.59-9h0a24.43,24.43,0,0,1-19.62-16.46,24.43,24.43,0,0,0-11.57-13.79,24.43,24.43,0,0,1-12.81-22.18,24.43,24.43,0,0,0-6.16-16.91,24.43,24.43,0,0,1-4.45-25.22,24.43,24.43,0,0,0,0-18A24.43,24.43,0,0,1,140.64,228a24.43,24.43,0,0,0,6.16-16.91,24.43,24.43,0,0,1,12.81-22.18,24.43,24.43,0,0,0,11.57-13.79,24.43,24.43,0,0,1,19.62-16.46h0a24.43,24.43,0,0,0,15.59-9,24.43,24.43,0,0,1,24.07-8.76,24.43,24.43,0,0,0,17.73-3.13h0A24.41,24.41,0,0,1,261,134.1V67.38A37.12,37.12,0,0,0,241.51,72.89Z"/><path class="cls-2" d="M273.79,137.73a24.43,24.43,0,0,0,17.73,3.13,24.43,24.43,0,0,1,24.07,8.76,24.43,24.43,0,0,0,15.59,9,24.43,24.43,0,0,1,19.62,16.46,24.43,24.43,0,0,0,11.57,13.79,24.43,24.43,0,0,1,12.81,22.18A24.43,24.43,0,0,0,381.33,228a24.43,24.43,0,0,1,4.45,25.22,24.43,24.43,0,0,0,0,18,24.43,24.43,0,0,1-4.45,25.22,24.43,24.43,0,0,0-6.16,16.91,24.43,24.43,0,0,1-12.81,22.18A24.43,24.43,0,0,0,350.8,349.3a24.43,24.43,0,0,1-19.62,16.46,24.43,24.43,0,0,0-15.59,9,24.43,24.43,0,0,1-24.07,8.76,24.43,24.43,0,0,0-17.73,3.13h0A24.41,24.41,0,0,1,261,390.28V457a37.12,37.12,0,0,0,19.48-5.52h0a37.15,37.15,0,0,1,27-4.75h0A37.15,37.15,0,0,0,344,433.41h0a37.15,37.15,0,0,1,23.71-13.69h0a37.15,37.15,0,0,0,29.84-25h0a37.15,37.15,0,0,1,17.6-21A37.15,37.15,0,0,0,434.66,340,37.15,37.15,0,0,1,444,314.24h0a37.15,37.15,0,0,0,6.76-38.36h0a37.15,37.15,0,0,1,0-27.38h0A37.15,37.15,0,0,0,444,210.14h0a37.15,37.15,0,0,1-9.36-25.73,37.15,37.15,0,0,0-19.48-33.74h0a37.15,37.15,0,0,1-17.6-21h0a37.15,37.15,0,0,0-29.84-25h0A37.15,37.15,0,0,1,344,91h0a37.15,37.15,0,0,0-36.61-13.32h0a37.15,37.15,0,0,1-27-4.75h0A37.12,37.12,0,0,0,261,67.38V134.1A24.41,24.41,0,0,1,273.79,137.73Z"/><path class="cls-5" d="M211.36,416.53l-45.09,145a6.28,6.28,0,0,0,9.09,7.34l21-11.86a6.28,6.28,0,0,1,8.73,2.72l10.59,21.69a6.28,6.28,0,0,0,11.64-.89l45.09-145Z"/><path class="cls-6" d="M310.61,416.53l45.09,145a6.28,6.28,0,0,1-9.09,7.34L325.6,557a6.28,6.28,0,0,0-8.73,2.72l-10.59,21.69a6.28,6.28,0,0,1-11.64-.89l-45.09-145Z"/><path class="cls-5" d="M279.85,433.5,324,501.32a21.23,21.23,0,0,0,36.15-.91l29.15-50.16a21.23,21.23,0,0,0-13.38-31.3l-73.25-17.65C284,396.8,269.38,417.41,279.85,433.5Z"/><path class="cls-6" d="M251.15,418.32l94.55-95.26a21.23,21.23,0,0,1,35.21,8.25l18.33,55a21.23,21.23,0,0,1-19.47,27.92Z"/><path class="cls-6" d="M242.12,433.5,198,501.32a21.23,21.23,0,0,1-36.15-.91l-29.15-50.16a21.23,21.23,0,0,1,13.38-31.3l73.25-17.65C238,396.8,252.59,417.41,242.12,433.5Z"/><path class="cls-5" d="M270.83,418.32l-94.55-95.26a21.23,21.23,0,0,0-35.21,8.25l-18.33,55a21.23,21.23,0,0,0,19.47,27.92Z"/><path class="cls-5" d="M280.73,376.61H261v75.11h19.75a17.8,17.8,0,0,0,17.8-17.8v-39.5A17.8,17.8,0,0,0,280.73,376.61Z"/><path class="cls-6" d="M241.24,376.61a17.8,17.8,0,0,0-17.8,17.8v39.5a17.8,17.8,0,0,0,17.8,17.8H261V376.61Z"/></g></g></svg>