<?xml version="1.0" ?><svg viewBox="0 0 452.12 557.03" xmlns="http://www.w3.org/2000/svg"><defs><style>.cls-1{fill:#d1945e;}.cls-2{fill:#c68758;}.cls-3{fill:#ff5c5c;}.cls-4{fill:#ff4545;}.cls-5{fill:#fff6f0;}.cls-6{fill:#ffebde;}.cls-7{fill:#423b39;}.cls-8{fill:#8e6942;}</style></defs><title/><g data-name="图层 2" id="图层_2"><g data-name="图层 1" id="图层_1-2"><path class="cls-1" d="M373.88,226.45c119-52.24,74-167.23,47-217.22a17.53,17.53,0,0,0-29.86-1.66L260.54,196.36Z"/><path class="cls-2" d="M78.25,226.45c-119-52.24-74-167.23-47-217.22A17.53,17.53,0,0,1,61.07,7.56l130.51,188.8Z"/><path class="cls-3" d="M390,419.31c-.61-24.64-5.94-44.86-14.33-61.48a116.53,116.53,0,0,0-15.46-23.24l18.25-65.08c14.39-51.29-8.46-102.27-49.63-128-14.29-12.42-32.72-22.21-53.75-28.25a178,178,0,0,0-49-6.76c-41.27,0-78.18,13.61-102.79,35-41.17,25.74-64,76.72-49.63,128L91.9,334.59h0a120.32,120.32,0,0,0-25.18,49.52q-.36,1.45-.7,2.92-1.35,5.89-2.26,12.23-.45,3.17-.79,6.45-.67,6.57-.85,13.6-.05,2.15,0,4.27c.36,89,82.18,133.45,164,133.45C309.18,557,392.29,511.12,390,419.31Z"/><path class="cls-4" d="M390,419.31c-.93-37.54-12.81-64.85-29.79-84.72l-7.14,25.46-1.51,5.39c-4,13.06-16.48,47.26-43.94,73.17-19.16,18.09-45.62,32.14-81.57,32.14s-62.41-14.05-81.57-32.14C117,412.7,104.54,378.5,100.55,365.44L99,360.05,91.9,334.59c-17,19.87-28.85,47.18-29.79,84.72C59.83,511.12,142.95,557,226.06,557S392.29,511.12,390,419.31Z"/><path class="cls-2" d="M328.85,141.51c-24.61-21.4-61.51-35-102.78-35s-78.18,13.61-102.79,35c-41.17,25.74-64,76.72-49.63,128L91.9,334.59,99,360.05l1.51,5.39c4,13.06,16.48,47.26,43.94,73.17,19.16,18.09,45.62,32.14,81.57,32.14s62.41-14.05,81.57-32.14c27.46-25.91,39.95-60.11,43.94-73.17l1.51-5.39h0l7.14-25.46,18.25-65.08C392.87,218.22,370,167.24,328.85,141.51Z"/><path class="cls-3" d="M144.49,438.61C117,412.7,104.54,378.5,100.55,365.44L99,360.05,91.9,334.59c-17,19.87-28.85,47.18-29.79,84.72C59.83,511.12,142.95,557,226.06,557V470.75C190.1,470.75,163.65,456.69,144.49,438.61Z"/><path class="cls-4" d="M390,419.31c-.93-37.54-12.81-64.85-29.79-84.72l-7.14,25.46-1.51,5.39c-4,13.06-16.48,47.26-43.94,73.17-19.16,18.09-45.62,32.14-81.57,32.14h0V557C309.18,557,392.29,511.12,390,419.31Z"/><path class="cls-1" d="M123.28,141.51c-41.17,25.74-64,76.72-49.63,128L91.9,334.59,99,360.05l1.51,5.39c4,13.06,16.48,47.26,43.94,73.17-2.31-22.76,10.36-47,36.59-54.27a167.5,167.5,0,0,1,45-6.11V106.49C184.79,106.49,147.89,120.11,123.28,141.51Z"/><path class="cls-2" d="M328.85,141.51c-24.61-21.4-61.51-35-102.78-35V378.22a167.5,167.5,0,0,1,45,6.11c26.23,7.3,38.9,31.51,36.59,54.27,27.46-25.91,39.95-60.11,43.94-73.17l1.51-5.39h0l7.14-25.46,18.25-65.08C392.87,218.22,370,167.24,328.85,141.51Z"/><path class="cls-5" d="M271,384.34a168.51,168.51,0,0,0-90,0c-26.23,7.3-38.9,31.51-36.59,54.27,19.16,18.09,45.62,32.14,81.57,32.14s62.41-14.05,81.57-32.14C309.94,415.85,297.28,391.64,271,384.34Z"/><path class="cls-6" d="M271,384.34a167.5,167.5,0,0,0-45-6.11h0v92.52h0c36,0,62.41-14.05,81.57-32.14C309.94,415.85,297.28,391.64,271,384.34Z"/><path class="cls-5" d="M181.08,384.34c-26.23,7.3-38.9,31.51-36.59,54.27,19.16,18.09,45.62,32.14,81.57,32.14V378.22A167.5,167.5,0,0,0,181.08,384.34Z"/><path class="cls-1" d="M351.57,365.44c1-3.39,1.51-5.37,1.51-5.39Z"/><path class="cls-1" d="M100.55,365.44,99,360.05S99.51,362,100.55,365.44Z"/><circle class="cls-7" cx="151.88" cy="284.75" r="30.3"/><circle class="cls-7" cx="300.25" cy="284.75" r="30.3"/><circle class="cls-4" cx="226.06" cy="381.46" r="30.68"/><path class="cls-8" d="M168.74,128.94c-21-24.6-22.85-60.19-21.64-81.93a22.48,22.48,0,0,0-17.87-23.33l-.13,0A19.1,19.1,0,0,0,106.2,41a215.07,215.07,0,0,0,.19,34.25c.47,5.3,1,10.46,1.58,15.49-.35-.33-.7-.66-1-1a23.92,23.92,0,0,0-27.18-5h0c-10.62,5.13-13.09,18.73-5.1,27.88a74.1,74.1,0,0,0,20.71,16.83,64.36,64.36,0,0,0,11,4.65l1.66.5A28.83,28.83,0,0,1,124.61,147a76.35,76.35,0,0,0,6.86,9.35,23.13,23.13,0,0,0,35.9-1.09l1.91-2.5A19,19,0,0,0,168.74,128.94Z"/><path class="cls-8" d="M283.39,128.94c21-24.6,22.85-60.19,21.64-81.93A22.48,22.48,0,0,1,322.9,23.68l.13,0A19.1,19.1,0,0,1,345.92,41a215.07,215.07,0,0,1-.19,34.25c-.47,5.3-1,10.46-1.58,15.49.35-.33.7-.66,1-1a23.92,23.92,0,0,1,27.18-5h0c10.62,5.13,13.09,18.73,5.1,27.88a74.1,74.1,0,0,1-20.71,16.83,64.36,64.36,0,0,1-11,4.65l-1.66.5A28.83,28.83,0,0,0,327.52,147a76.34,76.34,0,0,1-6.86,9.35,23.13,23.13,0,0,1-35.9-1.09l-1.91-2.5A19,19,0,0,1,283.39,128.94Z"/></g></g></svg>