<?xml version="1.0" ?><svg id="Слой_1" style="enable-background:new 0 0 192 192;" version="1.1" viewBox="0 0 192 192" xml:space="preserve" xmlns="http://www.w3.org/2000/svg" xmlns:xlink="http://www.w3.org/1999/xlink"><style type="text/css">
	.st0{fill-rule:evenodd;clip-rule:evenodd;fill:#FFBC33;}
	.st1{fill:none;stroke:#000000;stroke-width:4.5;stroke-linecap:round;stroke-miterlimit:10;}
	.st2{fill:#259CEF;}
	.st3{fill:#008AE0;}
	.st4{fill:#FF6E50;}
	.st5{fill:#FF563B;}
</style><g><g><path class="st0" d="M57.3,91.8c-10.6,0-19.2-9.4-19.2-21c0-11,15.7-27.7,17.5-29.6l1.6-1.7l1.6,1.7c1.8,1.9,17.5,18.6,17.5,29.6    C76.4,82.3,67.8,91.8,57.3,91.8z"/><path d="M57.3,42.7c0,0,16.9,17.7,16.9,28s-7.6,18.8-16.9,18.8s-16.9-8.4-16.9-18.8S57.3,42.7,57.3,42.7 M57.3,36.2L54,39.6    c-1.9,1.9-18.2,19.3-18.2,31.2c0,12.8,9.6,23.3,21.4,23.3s21.4-10.4,21.4-23.3c0-11.8-16.3-29.2-18.2-31.2L57.3,36.2L57.3,36.2z"/></g><line class="st1" x1="57.3" x2="57.3" y1="81.3" y2="101.7"/><g><rect class="st2" height="78.2" width="36.7" x="39.8" y="99.1"/><path d="M74.2,101.3V175H42v-73.7H74.2 M78.7,96.8h-4.5H42h-4.5v4.5V175v4.5H42h32.2h4.5V175v-73.7V96.8L78.7,96.8z"/></g><g><rect class="st3" height="73.7" width="10" x="42" y="101.3"/></g></g><g><g><path class="st0" d="M128.3,114.8c-10.6,0-19.2-9.4-19.2-21c0-11,15.7-27.7,17.5-29.6l1.6-1.7l1.6,1.7    c1.8,1.9,17.5,18.6,17.5,29.6C147.4,105.3,138.8,114.8,128.3,114.8z"/><path d="M128.3,65.7c0,0,16.9,17.7,16.9,28s-7.6,18.8-16.9,18.8s-16.9-8.4-16.9-18.8S128.3,65.7,128.3,65.7 M128.3,59.2l-3.3,3.4    c-1.9,1.9-18.2,19.3-18.2,31.2c0,12.8,9.6,23.3,21.4,23.3s21.4-10.4,21.4-23.3c0-11.8-16.3-29.2-18.2-31.2L128.3,59.2L128.3,59.2z    "/></g><line class="st1" x1="128.3" x2="128.3" y1="104.3" y2="124.7"/><g><rect class="st4" height="55.5" width="61.5" x="97.8" y="121.8"/><path d="M157,124v51h-57v-51H157 M161.5,119.5H157h-57h-4.5v4.5v51v4.5h4.5h57h4.5V175v-51V119.5L161.5,119.5z"/></g><g><rect class="st5" height="51" width="10" x="100" y="124"/></g></g></svg>