<?xml version="1.0" ?><svg id="Слой_1" style="enable-background:new 0 0 192 192;" version="1.1" viewBox="0 0 192 192" xml:space="preserve" xmlns="http://www.w3.org/2000/svg" xmlns:xlink="http://www.w3.org/1999/xlink"><style type="text/css">
	.st0{display:none;}
	.st1{display:inline;}
	.st2{fill:#FF563B;}
	.st3{fill:#F6F7FA;}
	.st4{fill:#87D561;}
	.st5{fill:#71C144;}
	.st6{fill:#87D561;stroke:#000000;stroke-width:6;stroke-miterlimit:10;}
</style><g class="st0"><path class="st1" d="M151,86c6.6,0,12,5.4,12,12v12.5c0,6.6-5.4,12-12,12H89.5c-6.6,0-12-5.4-12-12v-4.8c0-2.9,2.4-5.3,5.3-5.3   h41.8c6.6,0,12-5.4,12-12v0c0-1.4,1.1-2.5,2.5-2.5H151 M151,81.5h-12c-3.9,0-7,3.1-7,7c0,4.1-3.4,7.5-7.5,7.5H82.8   c-5.4,0-9.8,4.4-9.8,9.8v4.8c0,9.1,7.4,16.5,16.5,16.5H151c9.1,0,16.5-7.4,16.5-16.5V98C167.5,88.9,160.1,81.5,151,81.5L151,81.5z"/></g><g><g><path class="st2" d="M95.2,178.2c-5.4,0-9.9-4.4-9.9-9.9V42.5c0-15.8,12.9-28.6,28.6-28.6c15.8,0,28.6,12.9,28.6,28.6v7.3    c0,5.4-4.4,9.9-9.9,9.9s-9.9-4.4-9.9-9.9v-7.3c0-4.9-4-8.9-8.9-8.9s-8.9,4-8.9,8.9v125.9C105.1,173.8,100.7,178.2,95.2,178.2z"/><path d="M114,16.1c14.6,0,26.4,11.8,26.4,26.4l0,7.3c0,4.2-3.4,7.6-7.6,7.6c-4.2,0-7.6-3.4-7.6-7.6v-7.3c0-6.2-5-11.2-11.2-11.2h0    c-6.2,0-11.2,5-11.2,11.2v125.9c0,4.2-3.4,7.6-7.6,7.6s-7.6-3.4-7.6-7.6l0-125.9C87.6,27.9,99.4,16.1,114,16.1L114,16.1 M114,11.6    c-17,0-30.9,13.9-30.9,30.9l0,125.9c0,6.7,5.4,12.1,12.1,12.1c6.7,0,12.1-5.4,12.1-12.1V42.5c0-3.7,3-6.7,6.7-6.7    c3.7,0,6.7,3,6.7,6.7v7.3c0,6.7,5.4,12.1,12.1,12.1c3.2,0,6.3-1.3,8.6-3.6c2.3-2.3,3.6-5.3,3.6-8.6l0-7.3    C144.9,25.4,131.1,11.6,114,11.6L114,11.6z"/></g><g><g><path class="st3" d="M91.7,175.1c1.1,0.5,2.2,0.9,3.5,0.9h0c4.2,0,7.6-3.4,7.6-7.6v-4.4L91.7,175.1z"/></g><polygon class="st3" points="87.6,160.8 102.9,145.6 102.9,126.6 87.6,141.9   "/><g><polygon class="st3" points="102.9,66.5 102.9,45.7 87.6,60.9 87.6,81.8    "/></g><polygon class="st3" points="87.6,122.1 102.9,106.8 102.9,87.9 87.6,103.2   "/><g><path class="st3" d="M125.2,42.5v0.7l12.5-12.5c-2.2-4.5-5.7-8.3-10-10.8L116,31.5C121.2,32.4,125.2,37,125.2,42.5z"/></g><g><path class="st3" d="M130.3,57c0.8,0.3,1.6,0.4,2.5,0.4h0c4.2,0,7.6-3.4,7.6-7.6l0-2.9L130.3,57z"/></g><g><path class="st3" d="M112.4,16.1c-13.3,0.8-23.9,11.4-24.7,24.7L112.4,16.1z"/></g></g><g><path d="M114,16.1c14.6,0,26.4,11.8,26.4,26.4l0,7.3c0,4.2-3.4,7.6-7.6,7.6c-4.2,0-7.6-3.4-7.6-7.6v-7.3c0-6.2-5-11.2-11.2-11.2h0    c-6.2,0-11.2,5-11.2,11.2v125.9c0,4.2-3.4,7.6-7.6,7.6h0c-4.2,0-7.6-3.4-7.6-7.6l0-125.9C87.6,27.9,99.4,16.1,114,16.1L114,16.1     M114,15.1c-15.1,0-27.4,12.3-27.4,27.4l0,125.9c0,4.8,3.9,8.6,8.6,8.6s8.6-3.9,8.6-8.6V42.5c0-5.6,4.6-10.2,10.2-10.2    c5.6,0,10.2,4.6,10.2,10.2v7.3c0,4.8,3.9,8.6,8.6,8.6c2.3,0,4.5-0.9,6.1-2.5c1.6-1.6,2.5-3.8,2.5-6.1l0-7.3    C141.4,27.3,129.1,15.1,114,15.1L114,15.1z"/></g><g><path class="st4" d="M80.4,152c-1.8,0-3.3-1.2-3.7-2.9l-1.9-7.6l-6.6,4.1c-0.6,0.4-1.3,0.6-2,0.6c-1.3,0-2.6-0.7-3.3-1.8    c-0.7-1.1-0.8-2.5-0.2-3.7l22.2-44.4c0.7-1.3,2-2.1,3.4-2.1c0.5,0,1,0.1,1.4,0.3l7.2,2.9c1.8,0.8,2.8,2.8,2.2,4.7L84,149.3    C83.5,150.9,82,152,80.4,152z"/><path d="M88.3,97.1c0.1,0,0.2,0,0.3,0.1l7.2,2.9c0.4,0.2,0.6,0.6,0.5,1l-15.1,47.3c-0.1,0.4-0.5,0.6-0.8,0.6    c-0.4,0-0.7-0.2-0.8-0.6L77,137.9c-0.1-0.4-0.5-0.6-0.8-0.6c-0.2,0-0.3,0-0.4,0.1l-9.1,5.7c-0.1,0.1-0.3,0.1-0.4,0.1    c-0.6,0-1.1-0.6-0.8-1.2l22.2-44.4C87.7,97.3,88,97.1,88.3,97.1 M88.3,91.1c-2.6,0-5,1.5-6.1,3.8L60,139.3c-1.1,2.1-1,4.6,0.3,6.7    c1.2,2,3.5,3.3,5.8,3.3c1.3,0,2.5-0.4,3.6-1l3.1-1.9l0.9,3.6c0.8,3.1,3.5,5.2,6.6,5.2c3,0,5.6-1.9,6.5-4.8l15.1-47.3    c1.1-3.4-0.6-7.1-3.9-8.4l-7.2-2.9C90,91.3,89.2,91.1,88.3,91.1L88.3,91.1z"/></g><g><path class="st5" d="M76.2,137.3l18.7-37.6l-6.3-2.6c-0.4-0.2-0.9,0-1.1,0.4L65.3,142c-0.4,0.8,0.5,1.5,1.2,1.1l9.1-5.7    C75.8,137.3,76,137.3,76.2,137.3z"/></g><g><path class="st4" d="M112.2,152c-1.7,0-3.2-1.1-3.7-2.7L93.4,102c-0.6-1.9,0.4-4,2.2-4.7l7.2-2.9c0.5-0.2,0.9-0.3,1.4-0.3    c1.5,0,2.8,0.8,3.4,2.1l22.2,44.4c0.6,1.2,0.5,2.6-0.2,3.7c-0.7,1.1-2,1.8-3.3,1.8c-0.7,0-1.4-0.2-2-0.6l-6.6-4.1l-1.9,7.6    C115.5,150.8,114,152,112.2,152L112.2,152z"/><path d="M104.3,97.1c0.3,0,0.6,0.2,0.8,0.5l22.2,44.4c0.3,0.6-0.2,1.2-0.8,1.2c-0.1,0-0.3,0-0.4-0.1l-9.1-5.7    c-0.1-0.1-0.3-0.1-0.4-0.1c-0.4,0-0.7,0.2-0.8,0.6l-2.6,10.5c-0.1,0.4-0.5,0.6-0.8,0.6c-0.3,0-0.7-0.2-0.8-0.6l-15.1-47.3    c-0.1-0.4,0.1-0.9,0.5-1l7.2-2.9C104.1,97.1,104.2,97.1,104.3,97.1 M104.3,91.1c-0.9,0-1.8,0.2-2.6,0.5l-7.2,2.9    c-3.3,1.3-5,5-3.9,8.4l15.1,47.3c0.9,2.8,3.5,4.8,6.5,4.8c3.2,0,5.9-2.1,6.6-5.2l0.9-3.6l3.1,1.9c1.1,0.7,2.3,1,3.6,1    c2.4,0,4.6-1.2,5.8-3.3c1.3-2,1.4-4.5,0.3-6.7l-22.2-44.4C109.3,92.5,106.9,91.1,104.3,91.1L104.3,91.1z"/></g><g><g><path class="st4" d="M92.1,105.2c-0.3,0-32.7-0.1-41.9-10.7l-0.2-0.2l-0.1-0.2c-2-3.1-1.8-7.3,0.6-11.6     c3.4-6.2,11.5-13,17.8-13.1l1,0l0.8,0.6c5.1,3.6,7.1,6.3,9.2,9.1c0.7,1,1.5,2,2.4,3.1l0.1,0.1c0.9,1.1,3.7,4,6.5,6.9     c2.4,2.5,4.9,5.1,6.8,7.1c2.9,3.2,4.9,5.3,3.1,7.6l-0.7,0.9l-1.2,0.2C95.5,105.1,94.1,105.2,92.1,105.2     C92.1,105.2,92.1,105.2,92.1,105.2z"/><path d="M68.4,72.4c6.5,4.7,7.5,7.5,11.1,11.7c2.5,3.2,17,17.1,16.4,17.9c-0.6,0.1-2,0.2-3.8,0.2c-9.6,0-32.9-1.9-39.7-9.7     C48.1,85.5,61.2,72.4,68.4,72.4 M70.3,66.4l-1.9,0c-7.7,0-16.6,7.6-20.5,14.6c-2.9,5.4-3.1,10.6-0.5,14.7l0.2,0.4l0.3,0.3     c10,11.4,40.7,11.7,44.2,11.7c3.2,0,4.4-0.2,4.8-0.3l2.3-0.4l1.4-1.9c1.1-1.5,2.5-4.5-0.7-8.6c-0.6-0.7-1.4-1.7-2.5-2.9     c-1.9-2.1-4.4-4.7-6.9-7.2c-2.6-2.7-5.5-5.7-6.3-6.7l-0.1-0.1l-0.1-0.1c-0.9-1-1.6-1.9-2.3-2.9c-2.2-2.8-4.4-5.8-9.8-9.7     L70.3,66.4L70.3,66.4z"/></g><g><path class="st5" d="M63.3,92.5c-3.1-4.9,2.6-13,8.7-17.2c-1-0.9-2.2-1.8-3.6-2.9c-7.2,0-20.4,13.1-15.9,20.1     c8.1,9.2,39.3,10.2,43.4,9.5c0,0,0,0,0-0.1C84.8,101.2,68.7,98.7,63.3,92.5z"/></g><g><path class="st4" d="M99,105.2c-2,0-3.4-0.1-4.3-0.2l-1.2-0.2l-0.7-0.9c-1.8-2.3,0.1-4.4,3.1-7.6c1.9-2.1,4.4-4.6,6.8-7.1     c2.8-2.8,5.6-5.8,6.5-6.9l0.1-0.1c0.9-1.1,1.7-2.1,2.4-3.1c2.1-2.8,4.1-5.4,9.2-9.1l0.8-0.6l1,0c6.3,0,14.5,6.9,17.8,13.1     c2.4,4.4,2.6,8.5,0.6,11.6l-0.1,0.2l-0.2,0.2C131.6,105,99.3,105.2,99,105.2z"/><path d="M122.7,72.4c7.2,0,20.3,13.1,15.9,20.1c-6.8,7.8-30,9.7-39.6,9.7c-1.8,0-3.1-0.1-3.8-0.2c-0.6-0.8,13.8-14.8,16.4-17.9     C115.1,79.9,116.2,77.1,122.7,72.4 M120.8,66.4l-1.6,1.1c-5.4,3.9-7.7,6.8-9.8,9.7c-0.7,1-1.5,1.9-2.3,2.9l-0.1,0.1l-0.1,0.1     c-0.8,1-3.7,4-6.3,6.7c-2.4,2.5-4.9,5.1-6.9,7.2c-1.1,1.2-1.9,2.2-2.5,2.9c-3.2,4.1-1.8,7.2-0.7,8.6l1.4,1.9l2.3,0.4     c0.4,0.1,1.5,0.3,4.8,0.3c3.5,0,34.2-0.3,44.2-11.7l0.3-0.3l0.2-0.4c2.6-4.1,2.4-9.3-0.5-14.7c-3.8-7-12.7-14.6-20.4-14.6     L120.8,66.4L120.8,66.4z"/></g><path class="st6" d="M102.4,87.6H88.6c-2,0-3.6,1.6-3.6,3.6v12.4c0,2,1.6,3.6,3.6,3.6h13.8c2,0,3.6-1.6,3.6-3.6V91.3    C106.1,89.3,104.4,87.6,102.4,87.6z"/></g></g></svg>