<?xml version="1.0" ?><svg id="Слой_1" style="enable-background:new 0 0 192 192;" version="1.1" viewBox="0 0 192 192" xml:space="preserve" xmlns="http://www.w3.org/2000/svg" xmlns:xlink="http://www.w3.org/1999/xlink"><style type="text/css">
	.st0{fill:none;stroke:#000000;stroke-width:4.5;stroke-linecap:round;stroke-miterlimit:10;}
	.st1{fill:#00B1DD;}
	.st2{fill:#00C2EB;}
	.st3{fill:none;stroke:#008AE0;stroke-width:4.5;stroke-miterlimit:10;}
	.st4{fill:#FFCF48;}
	.st5{fill:#FF6E50;}
	.st6{fill:#FF563B;}
	.st7{fill:none;stroke:#FFCF48;stroke-width:4.5;stroke-miterlimit:10;}
</style><g><g><g><line class="st0" x1="130.9" x2="130.9" y1="18" y2="60.5"/></g><g><path class="st1" d="M130.9,139.7c-20.3,0-36.8-16.5-36.8-36.8s16.5-36.8,36.8-36.8s36.8,16.5,36.8,36.8S151.2,139.7,130.9,139.7     z"/><path d="M130.9,68.3c19.1,0,34.6,15.5,34.6,34.6s-15.5,34.6-34.6,34.6S96.3,122,96.3,102.9S111.8,68.3,130.9,68.3 M130.9,63.8     c-21.5,0-39.1,17.5-39.1,39.1s17.5,39.1,39.1,39.1s39.1-17.5,39.1-39.1S152.4,63.8,130.9,63.8L130.9,63.8z"/></g><g><path class="st2" d="M130.9,68.3c-10.9,0-20.6,5-26.9,12.9c15,7.4,25.4,22.9,25.4,40.8c0,5.3-0.9,10.4-2.6,15.2     c1.4,0.2,2.7,0.3,4.1,0.3c19.1,0,34.6-15.5,34.6-34.6S150,68.3,130.9,68.3z"/></g><g><path class="st1" d="M104.1,102.9c0-17.8,13.4-32.4,30.7-34.4c-1.3-0.1-2.6-0.2-3.9-0.2c-19.1,0-34.6,15.5-34.6,34.6     s15.5,34.6,34.6,34.6c1.3,0,2.6-0.1,3.9-0.2C117.5,135.3,104.1,120.7,104.1,102.9z"/></g><path class="st3" d="M166.5,106c-23.7,5.3-46.4,5.8-67.8,0"/><path class="st3" d="M166.5,92c-23.7,5.3-46.4,5.8-67.8,0"/><g><path d="M130.9,68.3c19.1,0,34.6,15.5,34.6,34.6s-15.5,34.6-34.6,34.6S96.3,122,96.3,102.9S111.8,68.3,130.9,68.3 M130.9,63.8     c-21.5,0-39.1,17.5-39.1,39.1s17.5,39.1,39.1,39.1s39.1-17.5,39.1-39.1S152.4,63.8,130.9,63.8L130.9,63.8z"/></g><g><path class="st4" d="M130.9,70.6c-2.8,0-5.6-0.3-8.3-0.9l-1.8-0.4v-6.9c0-4.2,3.6-7.7,8.1-7.7h4.2c4.5,0,8.1,3.4,8.1,7.7v6.9     l-1.8,0.4C136.6,70.3,133.7,70.6,130.9,70.6z"/><path d="M133.1,57c3.2,0,5.8,2.4,5.8,5.4v5.1c-2.7,0.6-5.4,0.8-8,0.8c-2.6,0-5.3-0.3-7.9-0.8v-5.1c0-3,2.6-5.4,5.8-5.4H133.1      M133.1,52.5h-4.2c-5.7,0-10.3,4.4-10.3,9.9v5.1v3.6l3.6,0.8c2.9,0.6,5.8,0.9,8.8,0.9c2.9,0,5.9-0.3,8.9-0.9l3.6-0.7v-3.7v-5.1     C143.5,56.9,138.8,52.5,133.1,52.5L133.1,52.5z"/></g></g><g><g><line class="st0" x1="72.1" x2="72.1" y1="17.4" y2="73.3"/></g><g><path class="st5" d="M72.1,176.9c-26.4,0-47.8-21.4-47.8-47.8c0-26.4,21.4-47.8,47.8-47.8c26.4,0,47.8,21.4,47.8,47.8     C119.9,155.4,98.4,176.9,72.1,176.9z"/><path d="M72.1,83.6c25.2,0,45.5,20.4,45.5,45.5s-20.4,45.5-45.5,45.5s-45.5-20.4-45.5-45.5S46.9,83.6,72.1,83.6 M72.1,79.1     c-27.6,0-50,22.4-50,50s22.4,50,50,50s50-22.4,50-50S99.7,79.1,72.1,79.1L72.1,79.1z"/></g><g><path class="st6" d="M36.8,129.1c0-23.4,17.7-42.7,40.4-45.2c-1.7-0.2-3.4-0.3-5.1-0.3c-25.2,0-45.5,20.4-45.5,45.5     s20.4,45.5,45.5,45.5c1.7,0,3.5-0.1,5.1-0.3C54.5,171.8,36.8,152.5,36.8,129.1z"/></g><path class="st7" d="M24.7,137.5l9-10.6c2.3-2.7,6.5-2.7,8.8,0l4.3,5c2.3,2.7,6.5,2.7,8.8,0l4.6-5.4c2.3-2.7,6.5-2.7,8.8,0    l4.8,5.6c2.3,2.7,6.5,2.7,8.8,0l4.8-5.6c2.3-2.7,6.5-2.7,8.8,0l4.8,5.6c2.3,2.7,6.5,2.7,8.8,0l9.1-10.7"/><g><path d="M72.1,83.6c25.2,0,45.5,20.4,45.5,45.5s-20.4,45.5-45.5,45.5s-45.5-20.4-45.5-45.5S46.9,83.6,72.1,83.6 M72.1,79.1     c-27.6,0-50,22.4-50,50s22.4,50,50,50s50-22.4,50-50S99.7,79.1,72.1,79.1L72.1,79.1z"/></g><g><path class="st4" d="M72.1,85.8c-3.6,0-7.3-0.4-10.8-1.1l-1.8-0.4v-8.5c0-5.2,4.5-9.4,9.9-9.4H75c5.5,0,9.9,4.2,9.9,9.4v8.5     l-1.8,0.4C79.5,85.4,75.7,85.8,72.1,85.8z"/><path d="M75,68.6c4.2,0,7.7,3.2,7.7,7.1v6.7c-3.5,0.7-7.1,1.1-10.6,1.1c-3.5,0-6.9-0.4-10.3-1.1v-6.7c0-3.9,3.4-7.1,7.7-7.1H75      M75,64.1h-5.5c-6.7,0-12.2,5.2-12.2,11.6v6.7v3.6l3.6,0.8c3.7,0.8,7.5,1.2,11.3,1.2c3.8,0,7.6-0.4,11.5-1.2l3.6-0.7v-3.7v-6.7     C87.2,69.4,81.7,64.1,75,64.1L75,64.1z"/></g></g></g></svg>