<?xml version="1.0" ?><svg id="Слой_1" style="enable-background:new 0 0 192 192;" version="1.1" viewBox="0 0 192 192" xml:space="preserve" xmlns="http://www.w3.org/2000/svg" xmlns:xlink="http://www.w3.org/1999/xlink"><style type="text/css">
	.st0{fill:none;stroke:#000000;stroke-width:4.5;stroke-linecap:round;stroke-miterlimit:10;}
	.st1{fill:none;stroke:#000000;stroke-width:4.5;stroke-miterlimit:10;}
	.st2{fill:#87D561;}
	.st3{fill:#71C144;}
	.st4{fill:#FF6E50;stroke:#000000;stroke-width:4.5;stroke-miterlimit:10;}
	.st5{fill-rule:evenodd;clip-rule:evenodd;fill:#87D561;}
	.st6{fill-rule:evenodd;clip-rule:evenodd;fill:#71C144;}
	.st7{fill:#FFCF48;}
	.st8{fill:#FFBC33;}
</style><path class="st0" d="M134.5,142.7c7.5,0,13.6-6.1,13.6-13.6c0-7.5-6.1-13.6-13.6-13.6"/><line class="st0" x1="134.2" x2="26.1" y1="142.7" y2="142.7"/><g><line class="st1" x1="55.2" x2="59.3" y1="130.3" y2="141.5"/></g><line class="st1" x1="102.2" x2="96.8" y1="130.3" y2="142.7"/><g><g><path class="st2" d="M66.2,124.8c-2.7,0-5.1-1.9-5.8-4.5l-5.9-23.8c-0.8-3.2,1.2-6.4,4.4-7.2l35.9-9c0.5-0.1,1-0.2,1.5-0.2    c2.7,0,5.1,1.9,5.8,4.5l5.9,23.8c0.4,1.5,0.1,3.2-0.7,4.5c-0.8,1.4-2.1,2.3-3.7,2.7l-35.9,9C67.1,124.7,66.6,124.8,66.2,124.8z"/><path d="M96.1,82.3c1.7,0,3.2,1.1,3.6,2.8l5.9,23.8c0.5,2-0.7,4-2.7,4.5l-35.9,9c-0.3,0.1-0.6,0.1-0.9,0.1c-1.7,0-3.2-1.1-3.6-2.8    l-5.9-23.8c-0.5-2,0.7-4,2.7-4.5l35.9-9C95.5,82.3,95.8,82.3,96.1,82.3 M96.1,77.8c-0.7,0-1.3,0.1-2,0.2l-35.9,9    c-4.4,1.1-7.1,5.6-6,10l5.9,23.8c0.9,3.7,4.2,6.2,8,6.2c0.7,0,1.3-0.1,2-0.2l35.9-9c4.4-1.1,7.1-5.6,6-10L104.1,84    C103.1,80.3,99.9,77.8,96.1,77.8L96.1,77.8z"/></g><g><path class="st3" d="M71.1,119.7l-5.9-23.8c-0.5-2,0.7-4,2.7-4.5l31-7.7c-0.9-1-2.3-1.6-3.7-1.2l-35.9,9c-2,0.5-3.2,2.5-2.7,4.5    l5.9,23.8c0.5,2,2.5,3.2,4.5,2.7l4.9-1.2C71.6,120.8,71.3,120.3,71.1,119.7z"/></g><path class="st4" d="M68.4,74.7c-2.1-1.5-2.8-2.6-6.2-3.9c-3.2,0.8-7.6,8.1-4.9,10.7c4.6,3.2,18.6,0.2,20.4-0.6   C77.9,80.5,69.9,75.8,68.4,74.7z"/><path class="st4" d="M86.3,64.8c-2.4,2.8-2.5,4.2-3.7,6.4c-0.8,1.7-5.6,9.5-5.3,9.8c1.9-0.1,15.7-4.1,18.2-9   C96.8,68.3,89.5,64,86.3,64.8z"/><path class="st4" d="M79,73.8l-6.1,1.5c-0.9,0.2-1.4,1.1-1.2,2l1.4,5.5c0.2,0.9,1.1,1.4,2,1.2l6.1-1.5c0.9-0.2,1.4-1.1,1.2-2L81,75   C80.8,74.1,79.9,73.6,79,73.8z"/><g><path class="st5" d="M51.4,91.9c-0.3-1.4,0.1-2.8,1.2-4c0.9-0.9,2.1-1.6,3.5-1.9l39.8-9.9c0.6-0.2,1.3-0.2,1.9-0.2    c2.5,0,4.5,1.3,5,3.3l1.2,4.7L52.5,96.6L51.4,91.9z"/><path d="M97.8,78.1c1.4,0,2.6,0.6,2.8,1.5l0.6,2.5l-47,11.7l-0.6-2.5c-0.3-1.3,1.1-2.7,3-3.2l39.8-9.9    C96.9,78.1,97.3,78.1,97.8,78.1 M97.8,73.6L97.8,73.6c-0.8,0-1.6,0.1-2.5,0.3l-39.8,9.9c-1.8,0.4-3.4,1.4-4.5,2.6    c-1.7,1.7-2.3,3.9-1.8,6.1l0.6,2.5l1.1,4.4l4.4-1.1l47-11.7l4.4-1.1l-1.1-4.4l-0.6-2.5C104.2,75.6,101.3,73.6,97.8,73.6L97.8,73.6    z"/></g><g><path class="st6" d="M62.1,91.4c-0.3-1.3,1.1-2.7,3-3.2l35.3-8.8c-0.5-1.1-2.2-1.6-4.1-1.1l-39.8,9.9c-2,0.5-3.4,1.9-3,3.2    l0.6,2.5l8.1-2L62.1,91.4z"/></g><rect class="st4" height="37.7" transform="matrix(0.9702 -0.2423 0.2423 0.9702 -21.5878 22.8433)" width="9.7" x="77.3" y="80.4"/></g><g><path class="st7" d="M91.3,132.6c-0.3,0-28.4,0-31.2-0.1v0c-6,0-12.8-3.9-20.1-11.7c-5.8-6.2-8.9-14.3-8.8-22.8   c0-2.5,2.1-4.6,4.7-4.6h11.9c2.5,0,4.7,1.8,5.3,4.2c1,4.5,5,7.7,9.5,7.7H78c2.5,0,4.5,2,4.5,4.5c0,2.7,2.2,4.8,4.8,4.8H93   c2.7,0,4.8-2.2,4.8-4.8c0-2.5,2-4.5,4.5-4.5h9.2l0.1,0c1.7,0.2,3.3,1.1,4.3,2.4c1,1.4,1.4,3.1,1.1,4.8c-0.4,2.1-0.8,4.3-1,5.3   c-1.6,8.5-9.1,14.7-17.8,14.8C97.6,132.5,94.9,132.6,91.3,132.6z"/><path d="M47.9,95.6c1.4,0,2.8,1,3.1,2.4c1.2,5.4,6,9.5,11.7,9.5H78c1.3,0,2.3,1,2.3,2.3c0,3.9,3.2,7.1,7.1,7.1H93   c3.9,0,7.1-3.2,7.1-7.1c0-1.3,1-2.3,2.3-2.3h9.1c2.3,0.2,3.9,2.4,3.5,4.6c-0.4,2.1-0.8,4.3-1,5.2c-1.4,7.5-8,12.9-15.6,12.9   c-0.7,0-3.4,0-7.1,0c-11.1,0-30.8,0-31.1-0.1c-6.5,0-13.3-5.5-18.4-11c-5.4-5.7-8.3-13.4-8.2-21.2c0-1.3,1.1-2.4,2.4-2.4H47.9    M47.9,91.1H35.9c-3.8,0-6.9,3.1-6.9,6.8c-0.1,9.1,3.2,17.8,9.4,24.4c7.7,8.2,15,12.4,21.7,12.4v0c3.8,0.1,30.8,0.1,31.1,0.1   c2.8,0,6.3,0,7.2,0c9.8-0.1,18.2-7.1,20-16.6c0.2-0.9,0.6-3.2,1-5.3c0.4-2.3-0.1-4.7-1.5-6.6c-1.4-1.9-3.6-3.1-5.9-3.3l-0.2,0h-0.2   h-9.1c-3.7,0-6.8,3-6.8,6.8c0,1.4-1.2,2.6-2.6,2.6h-5.6c-1.4,0-2.6-1.2-2.6-2.6c0-3.7-3-6.8-6.8-6.8H62.6c-3.5,0-6.6-2.5-7.3-5.9   C54.6,93.6,51.4,91.1,47.9,91.1L47.9,91.1z"/></g><g><g><path class="st8" d="M70.1,130.3c-6.5,0-13.3-5.5-18.4-11c-5.4-5.7-8.3-13.4-8.2-21.2c0-1.3,1.1-2.4,2.4-2.4h-10    c-1.3,0-2.4,1.1-2.4,2.4c-0.1,7.9,2.8,15.5,8.2,21.2c5.1,5.5,11.9,11,18.4,11c0.3,0,26.3,0.1,35.3,0    C84.3,130.3,70.3,130.3,70.1,130.3z"/></g></g></svg>