<?xml version="1.0" ?><svg viewBox="0 0 511.1 523.39" xmlns="http://www.w3.org/2000/svg"><defs><style>.cls-1{fill:#ff5757;}.cls-2{fill:#ff6c6c;}.cls-3{fill:#eeeeef;}.cls-4{fill:#f7f7f7;}</style></defs><title/><g data-name="图层 2" id="图层_2"><g data-name="图层 1" id="图层_1-2"><path class="cls-1" d="M352.71,230.2,294.08,37.07l-242.8,73.7,83.18,274A163.2,163.2,0,0,0,253.6,496.33L355.42,520a126.87,126.87,0,0,0,152.35-94.78h0A126.87,126.87,0,0,0,413,272.93l-19.49-4.54A55.87,55.87,0,0,1,352.71,230.2Z"/><path class="cls-1" d="M320,372.42l187.75,52.74A126.87,126.87,0,0,0,413,272.93l-19.5-4.54a55.87,55.87,0,0,1-40.79-38.18L294.08,37.07,172.68,73.92l66.59,219.36A117.76,117.76,0,0,0,320,372.42Z"/><path class="cls-2" d="M320,372.42a117.76,117.76,0,0,1-80.77-79.14L172.68,73.92,51.28,110.77l83.18,274A163.2,163.2,0,0,0,253.6,496.33L355.42,520a126.87,126.87,0,0,0,152.35-94.78h0l0-.11Z"/><rect class="cls-3" height="114.93" rx="57.46" ry="57.46" transform="translate(-19.69 56.03) rotate(-16.89)" width="368.67" x="-5.45" y="36.87"/><path class="cls-4" d="M40.79,76.2a57.46,57.46,0,0,0-38.3,71.68h0a57.46,57.46,0,0,0,71.68,38.3l121.4-36.85-33.38-110Z"/><path class="cls-3" d="M355.27,40.79h0a57.46,57.46,0,0,0-71.68-38.3L162.19,39.34l33.38,110L317,112.47A57.46,57.46,0,0,0,355.27,40.79Z"/><path class="cls-4" d="M227.36,330.86l-8.05-26.53a4.56,4.56,0,0,1,.34-3.48l6.79-12.72a4.56,4.56,0,0,1,8.39.82l8.05,26.53a4.56,4.56,0,0,1-.34,3.48l-6.79,12.72A4.56,4.56,0,0,1,227.36,330.86Z"/><path class="cls-3" d="M270.07,317.9,262,291.37a4.56,4.56,0,0,0-2.22-2.7l-12.72-6.79a4.56,4.56,0,0,0-6.52,5.35l8.05,26.53a4.56,4.56,0,0,0,2.22,2.7l12.72,6.79A4.56,4.56,0,0,0,270.07,317.9Z"/><path class="cls-4" d="M172.16,265.59l26.53-8.05a4.56,4.56,0,0,1,3.48.34l12.72,6.79a4.56,4.56,0,0,1-.82,8.39l-26.53,8.05a4.56,4.56,0,0,1-3.48-.34L171.34,274A4.56,4.56,0,0,1,172.16,265.59Z"/><path class="cls-4" d="M185.13,308.3l26.53-8.05a4.56,4.56,0,0,0,2.7-2.22l6.79-12.72a4.56,4.56,0,0,0-5.35-6.52l-26.53,8.05a4.56,4.56,0,0,0-2.7,2.22l-6.79,12.72A4.56,4.56,0,0,0,185.13,308.3Z"/><path class="cls-3" d="M237.44,210.4l8.05,26.53a4.56,4.56,0,0,1-.34,3.48l-6.79,12.72a4.56,4.56,0,0,1-8.39-.82l-8.05-26.53a4.56,4.56,0,0,1,.34-3.48L229,209.57A4.56,4.56,0,0,1,237.44,210.4Z"/><path class="cls-4" d="M194.72,223.36l8.05,26.53a4.56,4.56,0,0,0,2.22,2.7l12.72,6.79a4.56,4.56,0,0,0,6.52-5.35l-8.05-26.53a4.56,4.56,0,0,0-2.22-2.7L201.24,218A4.56,4.56,0,0,0,194.72,223.36Z"/><path class="cls-3" d="M292.63,275.67l-26.53,8.05a4.56,4.56,0,0,1-3.48-.34l-12.72-6.79a4.56,4.56,0,0,1,.82-8.39l26.53-8.05a4.56,4.56,0,0,1,3.48.34l12.72,6.79A4.56,4.56,0,0,1,292.63,275.67Z"/><path class="cls-3" d="M279.66,233,253.14,241a4.56,4.56,0,0,0-2.7,2.22l-6.79,12.72a4.56,4.56,0,0,0,5.35,6.52l26.53-8.05a4.56,4.56,0,0,0,2.7-2.22L285,239.47A4.56,4.56,0,0,0,279.66,233Z"/></g></g></svg>