<?xml version="1.0" ?><svg id="Слой_1" style="enable-background:new 0 0 192 192;" version="1.1" viewBox="0 0 192 192" xml:space="preserve" xmlns="http://www.w3.org/2000/svg" xmlns:xlink="http://www.w3.org/1999/xlink"><style type="text/css">
	.st0{fill:none;stroke:#040709;stroke-width:4.5;stroke-linecap:round;stroke-miterlimit:10;}
	.st1{fill:#87D561;}
	.st2{fill:#040709;}
	.st3{fill:#71C144;}
	.st4{fill:#FFBC33;}
	.st5{fill:#00C2EB;}
	.st6{fill:#00B1DD;}
	.st7{fill:#FF6E50;}
	.st8{fill:#FF563B;}
</style><g><g><line class="st0" x1="39" x2="40.7" y1="94.3" y2="110.9"/><line class="st0" x1="91.2" x2="94.5" y1="86.1" y2="95.3"/><line class="st0" x1="135.7" x2="142.3" y1="62" y2="72.7"/><g><path class="st1" d="M162.7,105.8c-3.8,0-12.8-4.9-15.2-8.2c-2.8-4-4.4-8.5-4.4-12.3c0-0.3-0.1-0.7-0.3-1l-3.7-5.3l9.6-6.8     l3.7,5.3c0.2,0.3,0.5,0.5,0.8,0.6c3.6,1.2,7.2,4.2,10.1,8.2c1.9,2.7,2.6,8.1,2.8,9.7c0.9,7.5-0.8,8.6-1.4,9.1     C164.2,105.6,163.5,105.8,162.7,105.8L162.7,105.8z"/><path class="st2" d="M148.2,75.5l2.4,3.4c0.5,0.7,1.2,1.2,1.9,1.5c3,1,6.3,3.6,8.9,7.4c2.3,3.3,3.5,14.5,1.9,15.6     c-0.2,0.1-0.4,0.2-0.7,0.2c-2.9,0-11.3-4.4-13.3-7.2c-2.7-3.8-4-7.8-4-10.9c0-0.8-0.2-1.6-0.7-2.3l-2.4-3.4L148.2,75.5      M149.3,69.2l-3.7,2.6l-5.9,4.2l-3.7,2.6l2.6,3.7l2.3,3.3c0,4.2,1.7,9,4.8,13.4c2.8,3.9,12.5,9.1,17,9.1c1.3,0,2.4-0.3,3.3-1     c1.7-1.2,3.3-3.4,2.4-11.2c-0.3-2.2-1.1-7.7-3.2-10.7c-3.1-4.3-7.1-7.6-11-9l-2.3-3.3L149.3,69.2L149.3,69.2z"/></g><g><path class="st3" d="M159.4,96.3c-2.7-3.8-4-7.8-4-10.9c0-0.8-0.2-1.6-0.7-2.3l-1.8-2.6c-0.1,0-0.2-0.1-0.3-0.1     c-0.8-0.3-1.5-0.8-1.9-1.5l-2.4-3.4l-5.9,4.2l2.4,3.4c0.5,0.7,0.7,1.5,0.7,2.3c-0.1,3.1,1.3,7.2,4,10.9     c2.2,3.1,12.4,8.2,14.1,7.1c0.5-0.3,0.7-1.6,0.7-3.3C162.1,98.8,160.2,97.4,159.4,96.3z"/></g><g><rect class="st4" height="11" transform="matrix(0.8173 -0.5762 0.5762 0.8173 -17.2631 96.7289)" width="13.8" x="137" y="70.1"/><path class="st2" d="M145.8,70.3l3.8,5.3l-7.6,5.3l-3.8-5.3L145.8,70.3 M146.9,64l-3.7,2.6l-7.6,5.3l-3.7,2.6l2.6,3.7l3.8,5.3     l2.6,3.7l3.7-2.6l7.6-5.3l3.7-2.6l-2.6-3.7l-3.8-5.3L146.9,64L146.9,64z"/></g><g><g><line class="st0" x1="167.2" x2="170.5" y1="108.6" y2="113.3"/></g><g><line class="st0" x1="157.9" x2="156.9" y1="110.8" y2="116.4"/></g><g><line class="st0" x1="172.4" x2="178" y1="100.5" y2="101.5"/></g><g><line class="st0" x1="149.7" x2="146.8" y1="106.3" y2="111.2"/></g><g><line class="st0" x1="171" x2="176.5" y1="91.4" y2="90.2"/></g></g></g><g><g><path class="st5" d="M107.1,134.4c-3.8,0-12.2-8.4-13.5-12.1c-1.7-4.7-2-9.4-0.9-13c0.1-0.3,0.1-0.7,0-1l-2.2-6.1l11.1-3.9     l2.2,6.1c0.1,0.3,0.3,0.6,0.6,0.8c3.1,2.1,5.8,6,7.5,10.6c1.1,3.1,0.4,8.5,0.1,10.1c-1.2,7.4-3.1,8.1-3.8,8.4     C107.8,134.3,107.4,134.4,107.1,134.4C107.1,134.4,107.1,134.4,107.1,134.4z"/><path class="st2" d="M100.2,101.1l1.4,4c0.3,0.8,0.8,1.5,1.5,1.9c2.6,1.8,5.1,5.2,6.6,9.5c1.3,3.8-0.5,14.9-2.4,15.6     c-0.1,0-0.2,0-0.3,0c-2.4,0-10.1-7.2-11.4-10.6c-1.5-4.3-1.8-8.6-0.9-11.6c0.2-0.8,0.2-1.6-0.1-2.4l-1.4-4L100.2,101.1      M102.9,95.3l-4.2,1.5l-6.8,2.4l-4.2,1.5l1.5,4.2l1.3,3.8c-1.1,4-0.8,9.2,1,14.2c1.5,4.2,10.3,13.6,15.6,13.6     c0.6,0,1.2-0.1,1.8-0.3c1.9-0.7,4.1-2.4,5.3-10.1c0.3-2.2,1-7.7-0.2-11.2c-1.8-5-4.7-9.2-8.2-11.6l-1.3-3.8L102.9,95.3     L102.9,95.3z"/></g><g><path class="st6" d="M105.7,121.5c-1.5-4.3-1.8-8.6-0.9-11.6c0.1-0.4,0.2-0.9,0.1-1.3c-0.6-0.6-1.3-1.2-1.9-1.6     c-0.7-0.5-1.2-1.1-1.5-1.9l-1.4-4l-6.8,2.4l1.4,4c0.3,0.8,0.3,1.6,0.1,2.4c-0.9,3-0.7,7.2,0.9,11.6c1.3,3.6,9.7,11.3,11.6,10.6     c0.8-0.3,1.6-2.6,2.2-5.4C107.7,124.8,106.2,122.9,105.7,121.5z"/></g><g><rect class="st4" height="11" transform="matrix(0.9426 -0.3341 0.3341 0.9426 -27.9053 37.8139)" width="13.8" x="89.1" y="94.5"/><path class="st2" d="M99.3,95.4l2.2,6.1l-8.7,3.1l-2.2-6.1L99.3,95.4 M102,89.7l-4.2,1.5L89,94.3l-4.2,1.5l1.5,4.2l2.2,6.1     l1.5,4.2l4.2-1.5l8.7-3.1l4.2-1.5l-1.5-4.2l-2.2-6.1L102,89.7L102,89.7z"/></g><g><g><line class="st0" x1="109.5" x2="111.4" y1="138.1" y2="143.5"/></g><g><line class="st0" x1="99.9" x2="97.5" y1="137.7" y2="142.8"/></g><g><line class="st0" x1="116.7" x2="121.8" y1="131.8" y2="134.2"/></g><g><line class="st0" x1="93.3" x2="89.1" y1="131.2" y2="135.1"/></g><g><line class="st0" x1="117.8" x2="123.5" y1="122.6" y2="122.9"/></g></g></g><g><g><path class="st7" d="M42.9,148.8c-4,0-10.2-11.4-10.5-15.5c-0.3-4.9,0.6-9.6,2.7-12.7c0.2-0.3,0.3-0.6,0.2-1l-0.4-6.4l11.7-0.8     l0.4,6.4c0,0.4,0.2,0.7,0.4,1c2.4,2.9,4,7.3,4.3,12.3c0.2,3.3-2,8.3-2.6,9.7c-3.2,6.8-5.2,6.9-6,7L42.9,148.8z"/><path class="st2" d="M44.5,114.8l0.3,4.2c0.1,0.8,0.4,1.6,0.9,2.3c2,2.4,3.5,6.4,3.8,11c0.3,4-4.6,14.2-6.5,14.3c0,0,0,0,0,0     c-2.1,0-8-9.6-8.3-13.4c-0.3-4.6,0.6-8.7,2.3-11.4c0.4-0.7,0.6-1.5,0.6-2.4l-0.3-4.2L44.5,114.8 M48.7,110l-4.5,0.3l-7.2,0.5     l-4.5,0.3l0.3,4.5l0.3,4c-2.2,3.5-3.2,8.6-2.9,13.9c0.2,3.6,3,8.3,4.1,10.2c4,6.5,6.6,7.4,8.6,7.4H43l0.2,0     c2.1-0.1,4.6-1.2,7.9-8.3c0.9-2,3.1-7.1,2.8-10.8c-0.3-5.3-2-10.2-4.7-13.4l-0.3-4L48.7,110L48.7,110z"/></g><g><path class="st8" d="M44.6,133.2c-0.3-4.2,0.5-8.1,1.9-10.7c-0.3-0.4-0.6-0.9-0.9-1.2c-0.5-0.6-0.8-1.4-0.9-2.3l-0.3-4.2     l-7.2,0.5l0.3,4.2c0.1,0.8-0.1,1.7-0.6,2.4c-1.7,2.6-2.6,6.8-2.3,11.4c0.2,3.8,6.3,13.5,8.3,13.4c1-0.1,2.9-3.1,4.4-6.5     C45.9,137.6,44.7,134.8,44.6,133.2z"/></g><g><rect class="st4" height="11" transform="matrix(0.9979 -6.505383e-02 6.505383e-02 0.9979 -7.2421 2.8875)" width="13.8" x="33.8" y="107.1"/><path class="st2" d="M45.1,109.1l0.4,6.5l-9.3,0.6l-0.4-6.5L45.1,109.1 M49.3,104.3l-4.5,0.3l-9.3,0.6l-4.5,0.3l0.3,4.5l0.4,6.5     l0.3,4.5l4.5-0.3l9.3-0.6l4.5-0.3l-0.3-4.5l-0.4-6.5L49.3,104.3L49.3,104.3z"/></g><g><g><line class="st0" x1="43.3" x2="43.7" y1="153" y2="158.7"/></g><g><line class="st0" x1="34.3" x2="30.5" y1="149.9" y2="154.2"/></g><g><line class="st0" x1="52" x2="56.2" y1="148.8" y2="152.5"/></g><g><line class="st0" x1="29.7" x2="24.6" y1="141.9" y2="144.5"/></g><g><line class="st0" x1="55.6" x2="60.9" y1="140.2" y2="142.2"/></g></g></g><g><path class="st0" d="M14,92.8c62.8,7.2,112.9-12.7,150.2-59.5"/></g></g></svg>