<?xml version="1.0" ?><svg id="Слой_1" style="enable-background:new 0 0 192 192;" version="1.1" viewBox="0 0 192 192" xml:space="preserve" xmlns="http://www.w3.org/2000/svg" xmlns:xlink="http://www.w3.org/1999/xlink"><style type="text/css">
	.st0{stroke:#000000;stroke-miterlimit:10;}
	.st1{fill:#71C144;stroke:#000000;stroke-width:7;stroke-miterlimit:10;}
	.st2{fill:#87D561;}
	.st3{fill:#FE6747;stroke:#000000;stroke-width:6;stroke-miterlimit:10;}
	.st4{fill:#FE7E5C;}
</style><g><path class="st0" d="M89.8,152.4L89.8,152.4c-1.9,0-3.5,1.6-3.5,3.5v26.3c0,1.9,1.6,3.5,3.5,3.5h0c1.9,0,3.5-1.6,3.5-3.5v-26.3   C93.3,153.9,91.7,152.4,89.8,152.4z"/><polygon class="st1" points="89,56.7 52.4,160.2 125.6,160.2  "/><path class="st2" d="M89,67l-18,89.8c0,0,0.3,0,0.7,0c6.1,0,49.5,0,49.5,0L89,67z"/><path class="st0" d="M120.5,160.6L120.5,160.6c-0.7,0.7-1.9,0.7-2.6,0l-47.1-47.1c-0.7-0.7-0.7-1.9,0-2.6l0,0   c0.7-0.7,1.9-0.7,2.6,0l47.1,47.1C121.2,158.8,121.2,159.9,120.5,160.6z"/><path class="st0" d="M72,111.8L72,111.8c0.7,0.7,1.9,0.7,2.6,0l24.4-24.4c0.7-0.7,0.7-1.9,0-2.6l0,0c-0.7-0.7-1.9-0.7-2.6,0   L72,109.3C71.3,110,71.3,111.1,72,111.8z"/></g><g id="_x23_e9573eff"><path class="st3" d="M115.5,29.3l-17.7-3.7l-8.6-15l-8.9,15.3L63,29.2c0,0,8.4,8.1,11.9,12.6c-0.8,5.5-2.2,16.6-2.2,16.6l16.5-6.9   l16.2,7.6l-1.9-17.2L115.5,29.3z"/></g><polygon class="st4" points="89.3,16.6 89.3,48.2 101.9,54.1 100.4,40.8 109.6,31.1 96,28.2 "/></svg>