<?xml version="1.0" ?><svg height="40px" version="1.1" viewBox="0 0 40 40" width="40px" xmlns="http://www.w3.org/2000/svg" xmlns:xlink="http://www.w3.org/1999/xlink"><title/><desc/><defs/><g fill="none" fill-rule="evenodd" id="Iconfinder" stroke="none" stroke-linecap="round" stroke-linejoin="round" stroke-width="1"><g id="Facebook" stroke-width="4"><path d="M25,12 L25,19 L32,19 L31.0526316,26 L25,26 L25,38 L18,38 L18,26 L14,26 L14,19 L18,19 L18,12 C18,8.13400675 21.1340068,5 25,5 L32,5 L32,12 L25,12 Z" fill="#7AB0EF" id="Combined-Shape" opacity="0.300000012" stroke="#7AB0EF"/><path d="M11,17 L15,17 L15,10 C15,6.13400675 18.1340068,3 22,3 L29,3 L29,10 L22,10 L22,17 L29,17 L28.0526316,24 L22,24 L22,36 L15,36 L15,24 L11,24" id="Combined-Shape" stroke="#113E73"/></g></g></svg>