<?xml version="1.0" ?><svg height="40px" version="1.1" viewBox="0 0 40 40" width="40px" xmlns="http://www.w3.org/2000/svg" xmlns:xlink="http://www.w3.org/1999/xlink"><title/><desc/><defs/><g fill="none" fill-rule="evenodd" id="Iconfinder" stroke="none" stroke-linejoin="round" stroke-width="1"><g id="Snapchat" stroke-width="4"><path d="M11.016089,17.4771539 C9.92095202,17.2651324 9.08264181,17.2322813 8.50115833,17.3786007 C7.91967484,17.52492 7.4955065,17.9548129 7.22865329,18.6682793 C7.04298416,19.3331628 7.27444943,19.9956625 7.92304912,20.6557783 C8.57164881,21.3158942 9.60266208,21.7730763 11.016089,22.0273245 C10.7269523,23.7181226 9.93838554,25.2018617 8.65038864,26.4785419 C7.36239173,27.755222 5.82812494,28.5739073 4.04758827,28.9345978 C3.83372376,29.6876381 4.10318962,30.3229697 4.85598583,30.8405925 C5.60878204,31.3582152 6.76536633,31.7034359 8.32573868,31.8762546 C8.10047649,32.9259341 8.49988155,33.6853898 9.52395385,34.1546215 C10.5480262,34.6238532 12.0774365,34.7481841 14.112185,34.5276143 L16.8618467,35.9691326 C18.4084508,36.8112003 19.7884359,37.2292037 21.0018022,37.223143 C22.2151685,37.2170822 23.5932072,36.7990788 25.1359183,35.9691326 L27.7253817,34.5276143 C30.1527927,34.6406067 31.7728606,34.5162758 32.5855855,34.1546215 C33.3983104,33.7929672 33.7643253,33.0335116 33.6836303,31.8762546 C35.1127322,31.7406841 36.1974803,31.4629964 36.9378746,31.0431914 C37.6782689,30.6233864 38.0130878,29.9205219 37.9423314,28.9345978 C35.7360607,28.4643442 34.0851135,27.6456589 32.9894899,26.4785419 C31.8938662,25.3114248 31.2476029,23.8276857 31.0506998,22.0273245 C32.5616028,21.6710438 33.6139897,21.2138617 34.2078604,20.6557783 C34.8017311,20.097695 34.9894783,19.3894749 34.7711021,18.5311181 C34.5337729,17.94355 34.0737875,17.5593775 33.3911461,17.3786007 C32.7085046,17.1978239 31.8418455,17.2306749 30.7911687,17.4771539 C30.9869529,14.5600885 30.7551656,12.269031 30.0958068,10.6039815 C29.436448,8.93893194 28.1937515,7.50654098 26.3677174,6.30680857 C24.529851,5.25152199 22.7412126,4.7238787 21.0018022,4.7238787 C19.2623918,4.7238787 17.5045334,5.16758423 15.7282269,6.05499528 C14.1458301,7.02729016 12.9143175,8.54361889 12.0336888,10.6039815 C11.1530602,12.664344 10.8138602,14.9554015 11.016089,17.4771539 Z" fill="#7AB0EF" id="Path-31" opacity="0.300000012" stroke="#7AB0EF"/><path d="M11.0336888,8.60398146 C10.1530602,10.664344 9.81386021,12.9554015 10.016089,15.4771539 C8.92095202,15.2651324 8.08264181,15.2322813 7.50115833,15.3786007 C6.91967484,15.52492 6.4955065,15.9548129 6.22865329,16.6682793 C6.04298416,17.3331628 6.27444943,17.9956625 6.92304912,18.6557783 C7.57164881,19.3158942 8.60266208,19.7730763 10.016089,20.0273245 C9.72695231,21.7181226 8.93838554,23.2018617 7.65038864,24.4785419 C6.36239173,25.755222 4.82812494,26.5739073 3.04758827,26.9345978 C2.83372376,27.6876381 3.10318962,28.3229697 3.85598583,28.8405925 C4.60878204,29.3582152 5.76536633,29.7034359 7.32573868,29.8762546 C7.10047649,30.9259341 7.49988155,31.6853898 8.52395385,32.1546215 C9.54802616,32.6238532 11.0774365,32.7481841 13.112185,32.5276143 L15.8618467,33.9691326 C17.4084508,34.8112003 18.7884359,35.2292037 20.0018022,35.223143 C21.2151685,35.2170822 22.5932072,34.7990788 24.1359183,33.9691326 L26.7253817,32.5276143 C29.1527927,32.6406067 30.7728606,32.5162758 31.5855855,32.1546215 C32.3983104,31.7929672 32.7643253,31.0335116 32.6836303,29.8762546 C34.1127322,29.7406841 35.1974803,29.4629964 35.9378746,29.0431914 C36.6782689,28.6233864 37.0130878,27.9205219 36.9423314,26.9345978 C34.7360607,26.4643442 33.0851135,25.6456589 31.9894899,24.4785419 C30.8938662,23.3114248 30.2476029,21.8276857 30.0506998,20.0273245 C31.5616028,19.6710438 32.6139897,19.2138617 33.2078604,18.6557783 C33.8017311,18.097695 33.9894783,17.3894749 33.7711021,16.5311181 C33.5337729,15.94355 33.0737875,15.5593775 32.3911461,15.3786007 C31.7085046,15.1978239 30.8418455,15.2306749 29.7911687,15.4771539 C29.9869529,12.5600885 29.7551656,10.269031 29.0958068,8.60398146 C28.436448,6.93893194 27.1937515,5.50654098 25.3677174,4.30680857 C23.529851,3.25152199 21.7412126,2.7238787 20.0018022,2.7238787 C18.2623918,2.7238787 16.5045334,3.16758423 14.7282269,4.05499528" id="Path-31" stroke="#113E73" stroke-linecap="round"/></g></g></svg>