<?xml version="1.0" ?><svg height="40px" version="1.1" viewBox="0 0 40 40" width="40px" xmlns="http://www.w3.org/2000/svg" xmlns:xlink="http://www.w3.org/1999/xlink"><title/><desc/><defs/><g fill="none" fill-rule="evenodd" id="Iconfinder" stroke="none" stroke-width="1"><g id="Vimeo"><path d="M24.4279132,16.549676 C25.4919625,13.8892626 26.569872,12.1023179 27.6616418,11.188842 C29.2992964,9.81862815 30.9380297,9.19058912 33.1568928,9.35724396 C35.3757558,9.5238988 36.6172384,10.5893332 37.2652547,11.9101522 C37.9132709,13.2309713 37.8136606,14.8824163 37.2652547,17.731112 C36.7168488,20.5798077 34.5595313,24.9565969 32.3559337,27.984381 C30.1523361,31.0121651 27.5174034,33.3420665 25.8158409,34.7371286 C24.1142784,36.1321907 22.5087129,36.7816399 20.3523801,36.369832 C18.1960474,35.9580241 17.1506565,34.5640918 16.555109,33.2893029 C15.9595614,32.0145139 12.6826949,20.3962146 12.350816,19.5056082 C12.0189371,18.6150018 11.5796294,17.9684427 11.0898438,17.731112 C10.6000581,17.4937813 10.3605726,17.4702669 9.47037168,17.731112 C8.87690441,17.9050087 8.32012357,18.1938678 7.80002918,18.5976892 L6.34827245,16.8092602 C9.80829939,13.5566662 12.0225558,11.6008907 12.9910416,10.9419337 C14.4437704,9.95349821 15.5028629,9.6292912 16.555109,9.86453655 C17.6073551,10.0997819 18.4578023,11.3186596 18.9594014,12.6488906 C19.4610005,13.9791216 20.8296333,21.7253226 21.1313657,23 C21.433098,24.2746774 21.6400096,24.7849775 22,25.4939905 C22.3599904,26.2030035 22.8522979,26.813271 23.4621454,26.813271 C24.0719928,26.813271 25.3796246,25.872233 26.4223038,24.1025333 C27.4649831,22.3328336 28.3200509,21.128113 28.7066051,19.7410961 C29.0931594,18.3540793 28.8961196,17.4853611 28.4549003,16.8092602 C28.0136811,16.1331593 27.1342494,16.2407544 26.4223038,16.2407544 C25.9476735,16.2407544 25.2828766,16.3437283 24.4279132,16.549676 Z" fill="#7AB0EF" id="Shadow" opacity="0.3" stroke="#7AB0EF" stroke-linecap="round" stroke-linejoin="round" stroke-width="4"/><path d="M9.61369844,12.600309 C10.6567049,13.1057086 11.3737523,14.1267237 11.8766497,15.476263 C12.262351,16.5113033 11.7359577,17.6630418 10.7009175,18.0487431 C9.6658772,18.4344444 8.51413865,17.9080511 8.12843739,16.8730108 C8.0357358,16.6242435 7.9385281,16.420611 7.84765739,16.2728657 C7.80132621,16.2857214 7.74705571,16.3011089 7.68448947,16.3194419 C7.3357426,16.4216311 7.00336391,16.5940699 6.67831953,16.846447 C5.81918968,17.5135087 4.58446793,17.3716848 3.89895868,16.5272013 L2.44720195,14.7387722 C1.783992,13.9217593 1.867331,12.7305721 2.63784443,12.0138668 C4.73172708,10.0662085 6.14867907,8.76525158 6.90048093,8.10060259 C8.08353116,7.05469781 8.9394737,6.35083968 9.51769778,5.95741647 C11.3886234,4.68444014 12.9649383,4.20654846 14.6431945,4.58174774 C16.4269899,4.98054188 17.7064918,6.55429065 18.4825065,8.61226645 C18.7400585,9.29528922 19.0794862,10.8184294 19.5961614,13.4257271 C19.6391702,13.6427622 19.683364,13.8672526 19.7290918,14.1008765 C19.8282443,14.6074468 19.9294506,15.1303044 20.0555132,15.7858043 C20.079241,15.9091841 20.2920147,17.0173994 20.3484995,17.310411 C20.5552101,18.3827095 20.6712237,18.9629459 20.7293102,19.2083344 C20.9482092,20.1330795 21.0803872,20.5329668 21.3441919,21.0751369 C21.6874303,20.7374745 22.0381803,20.287037 22.350878,19.7563071 C22.594928,19.3420904 23.33788,18.1193259 23.4412745,17.9452184 C23.7814641,17.3723679 24.0022941,16.9635354 24.1691236,16.5892581 C24.2822616,16.3354361 24.3682277,16.1011363 24.4317531,15.8731974 C24.5599183,15.4133206 24.5939894,15.1212859 24.5603327,14.9036797 C24.5131793,14.9040402 24.4554396,14.904903 24.373054,14.9063421 C24.2339315,14.9088126 24.161204,14.9097832 24.0740314,14.9097832 C23.7864849,14.9097832 23.2628873,14.9908859 22.5480133,15.1630882 C20.9695266,15.5433218 19.6197125,13.9835253 20.2226595,12.4759932 C21.3988392,9.53522306 22.6286809,7.49640727 24.0299619,6.32396552 C26.1202331,4.57505055 28.2792673,3.83066419 30.9584148,4.03189018 C33.6966095,4.23755109 35.6692022,5.57170509 36.7125249,7.69825723 C37.5735953,9.45333397 37.548864,11.3085893 36.8809209,14.778221 C36.2852928,17.8722126 34.0528678,22.4940011 31.6247338,25.8303024 C29.6673504,28.5197837 27.3763205,30.7877469 24.7356085,32.9527906 C22.4737024,34.8072622 20.2913399,35.5118125 17.6289359,35.0033571 C15.0630137,34.5133274 13.416674,32.9921634 12.3948223,30.8048565 C12.054929,30.0773038 11.3221617,27.6911184 9.89849491,22.8456074 C9.58712125,21.7858337 10.1938193,20.6742992 11.253593,20.3629255 C12.3133667,20.0515518 13.4249012,20.6582499 13.7362748,21.7180236 C15.0028627,26.02891 15.8167042,28.6791054 16.0188507,29.1118067 C16.5399251,30.2271832 17.2164794,30.8522973 18.3792794,31.0743643 C19.7743689,31.3407929 20.7945218,31.0114485 22.1995284,29.8595241 C24.599606,27.8917696 26.6658789,25.8463005 28.3905888,23.476517 C30.498196,20.5806254 32.4805084,16.4766449 32.9530435,14.0220605 C33.465281,11.3612415 33.4808583,10.1926898 33.1214396,9.46010468 C32.7029593,8.60713742 31.9828591,8.12010098 30.6588258,8.0206552 C29.050385,7.89984808 27.9099683,8.29303806 26.5967768,9.39177595 C26.2202586,9.70680603 25.8104449,10.225837 25.3804689,10.9449013 C26.3762849,11.063501 27.1761771,11.4576538 27.7815272,12.38526 C28.6101092,13.6549349 28.7863702,15.147743 28.2849123,16.9470523 C28.1662043,17.3729949 28.0128356,17.791 27.8226141,18.2177565 C27.5806525,18.7605907 27.2933012,19.2925769 26.8805362,19.9876382 C26.7620088,20.1872283 26.0238996,21.4020225 25.7971847,21.7868169 C24.537371,23.9250507 22.7174311,25.4822997 21.1138729,25.4822997 C19.5848141,25.4822997 18.6007214,24.510747 17.8684244,23.0684639 C17.3932758,22.132643 17.1504079,21.4542472 16.8368762,20.1297231 C16.7598208,19.8042003 16.6418301,19.2140752 16.4208133,18.0675642 C16.3639898,17.7727957 16.1509703,16.6633006 16.1274928,16.5412222 C16.0021891,15.8896682 15.9017522,15.3707858 15.8035809,14.8692278 C15.7584331,14.6385675 15.7148393,14.4171248 15.6724602,14.2032674 C15.2211768,11.9259563 14.880295,10.3962913 14.7397513,10.0235722 C14.3910123,9.09872315 13.9194221,8.51868138 13.7704785,8.48538281 C13.3501691,8.39141637 12.810648,8.55498309 11.7678406,9.26450845 C11.368697,9.53608542 10.6129095,10.1575841 9.54986733,11.0973928 C9.25229418,11.3604697 8.83779341,11.735101 8.30720232,12.2205478 C8.7396986,12.2514553 9.14890362,12.3750878 9.61369844,12.600309 Z" fill="#113E73" fill-rule="nonzero" id="Path-34"/></g></g></svg>