<?xml version="1.0" ?><!DOCTYPE svg  PUBLIC '-//W3C//DTD SVG 1.1//EN'  'http://www.w3.org/Graphics/SVG/1.1/DTD/svg11.dtd'><svg enable-background="new 0 0 91 91" height="91px" id="Layer_1" version="1.1" viewBox="0 0 91 91" width="91px" xml:space="preserve" xmlns="http://www.w3.org/2000/svg" xmlns:xlink="http://www.w3.org/1999/xlink"><g><path d="M24.691,64.832c0.344,1.473,2.302,2.32,3.585,1.459c4.387-2.933,8.898-5.645,13.333-8.497   c-0.128,2.447-0.163,4.943,0.424,7.038c0.39,1.385,2.288,2.419,3.585,1.459c9.071-6.699,18.486-12.966,27.737-19.416   c3.535-2.464,0.085-7.396-3.33-5.307c-1.131-1.123-2.254-2.26-3.521-3.254c-2.135-1.671-4.387-3.208-6.618-4.747   c-4.727-3.258-9.754-6.084-14.579-9.193c-1.659-1.068-3.945,0.328-3.911,2.244c0.046,2.559,0.1,5.118,0.157,7.675   c-1.432-1.426-2.891-2.798-4.62-4.031c-2.913-2.073-6.014-3.871-9.009-5.821c-1.609-1.051-3.822,0.327-3.794,2.177   c0.125,8.722,0.341,17.439,0.377,26.162C24.525,56.517,23.832,61.154,24.691,64.832z M68.143,43.051   c-6.932,5.668-14.047,11.178-21.318,16.415c0.022-2.581,0.041-5.16,0.055-7.739c0.032-6.798,0.084-13.615-0.112-20.414   c3.395,2.019,6.813,4.001,10.274,5.889C60.61,39.152,64.543,40.962,68.143,43.051z M41.62,37.491   c0.091,4.222,0.163,8.444,0.195,12.67c-0.143,0.093-8.356,6.334-12.395,9.246c0.046-2.562,0.086-5.122,0.103-7.681   c0.042-6.898,0.068-13.798-0.165-20.689C33.429,33.225,37.613,35.215,41.62,37.491z"/><path d="M2.615,32.574c-5.96,16.386-0.175,35.66,13.028,46.847c15.002,12.713,38.845,12.363,55.444,2.746   c15.495-8.975,22.427-27.884,18.616-45.062C85.055,16.151,64.714,2.217,43.832,1.848c-1.306-0.024-2.258,0.522-2.858,1.324   C23.946,2.806,8.145,17.36,2.615,32.574z M18.788,17.001c6.199-5.863,13.532-9.047,21.424-11.71   c-0.139,1.995,1.066,4.105,3.62,4.08c15.842-0.167,31.833,8.737,38.295,23.559c5.961,13.679,2.097,31.461-9.478,41.021   c-12.787,10.559-35.528,12.845-49.671,3.923C10.438,69.959,3.125,53.911,5.969,39.277C7.65,30.622,12.431,23.013,18.788,17.001z"/></g></svg>