<?xml version="1.0" ?><svg height="40px" version="1.1" viewBox="0 0 40 40" width="40px" xmlns="http://www.w3.org/2000/svg" xmlns:xlink="http://www.w3.org/1999/xlink"><title/><desc/><defs/><g fill="none" fill-rule="evenodd" id="Iconfinder" stroke="none" stroke-width="1"><g id="Youtube" stroke-width="4"><path d="M10,12 L34,12 C36.209139,12 38,13.790861 38,16 L38,30 C38,32.209139 36.209139,34 34,34 C30,34 26,34 22,34 C18,34 14,34 10,34 L10,34 C7.790861,34 6,32.209139 6,30 L6,16 C6,13.790861 7.790861,12 10,12 Z" fill="#7AB0EF" id="Shadow" opacity="0.300000012" stroke="#7AB0EF"/><path d="M8,9 L32,9 C34.209139,9 36,10.790861 36,13 L36,27 C36,29.209139 34.209139,31 32,31 C28,31 24,31 20,31 C16,31 12,31 8,31 C5.790861,31 4,29.209139 4,27 C4,21.5076132 4,17.3883231 4,14.6421297" id="Rectangle-48" stroke="#113E73" stroke-linecap="round"/><path d="M15.5,15.8641268 C15.5,15.3868827 15.884933,15 16.359772,15 C16.5080273,15 16.6537635,15.0385305 16.782829,15.1118501 L24.0631342,19.2476476 C24.4765114,19.4824789 24.6222107,20.0096531 24.3885627,20.425124 C24.3116744,20.5618461 24.1991673,20.6749231 24.0631342,20.7522008 L16.782829,24.8879983 C16.3694519,25.1228297 15.8449344,24.9763924 15.6112864,24.5609215 C15.5383364,24.4312022 15.5,24.2847278 15.5,24.1357216 C15.5,23.0630342 15.5,22.1470214 15.5,21.3876833" id="Rectangle-28" stroke="#113E73" stroke-linecap="round"/></g></g></svg>